<svg width="24" height="24" viewBox="0 0 24 24" fill="none" xmlns="http://www.w3.org/2000/svg">
<path d="M21.4691 3.59921C21.1267 3.26554 20.674 3.08889 20.1963 3.10093C19.2524 3.12526 18.4845 3.92535 18.4845 4.88457V9.33398C17.8661 9.11636 17.1493 9.25433 16.6556 9.74809L12.2706 14.133C12.1723 14.2313 12.0823 14.3357 12.0001 14.4448C11.9178 14.3357 11.8278 14.2313 11.7295 14.133L7.34457 9.74805C6.8509 9.25433 6.13413 9.11636 5.51565 9.33394V4.85817C5.51565 4.38004 5.32706 3.93292 4.98459 3.59921C4.64221 3.26554 4.18978 3.08882 3.71181 3.10093C2.76794 3.12526 2 3.92535 2 4.88457V11.4557C2 12.0551 2.16953 12.6396 2.49024 13.146L5.72007 18.2453C6.01659 18.7135 6.17335 19.2539 6.17335 19.808V21.414C6.17335 21.7376 6.4357 21.9999 6.7593 21.9999H17.2409C17.5645 21.9999 17.8269 21.7376 17.8269 21.414V19.808C17.8269 19.2538 17.9836 18.7135 18.2801 18.2453L21.51 13.146C21.8306 12.6396 22.0002 12.0551 22.0002 11.4557V4.85817C22.0002 4.38008 21.8116 3.93296 21.4691 3.59921ZM6.71008 17.6183L3.48025 12.5189C3.27849 12.2004 3.17188 11.8328 3.17188 11.4557V4.88457C3.17188 4.55516 3.42763 4.28054 3.74201 4.27246C3.90162 4.26859 4.05263 4.3273 4.16674 4.43848C4.28088 4.54973 4.34377 4.69879 4.34377 4.85817V11.0106C4.34377 11.0268 4.3449 11.0428 4.34619 11.0588C4.36252 11.4861 4.53311 11.9085 4.85862 12.234L6.99586 14.3713C7.22465 14.6001 7.59567 14.6001 7.8245 14.3713C8.05333 14.1424 8.05333 13.7714 7.8245 13.5426L5.68726 11.4054C5.45882 11.1769 5.45882 10.8052 5.68726 10.5767C5.91577 10.3483 6.28746 10.3483 6.51593 10.5767L10.9008 14.9616C11.2318 15.2927 11.4141 15.7346 11.4141 16.2059V20.8281H7.3452V19.808C7.3452 19.0315 7.12559 18.2743 6.71008 17.6183ZM20.8283 11.4557C20.8283 11.8328 20.7217 12.2004 20.5199 12.5189L17.2901 17.6183C16.8746 18.2743 16.655 19.0315 16.655 19.808V20.8281H12.586V16.2059C12.586 15.7346 12.7683 15.2927 13.0993 14.9616L17.4843 10.5767C17.7128 10.3482 18.0845 10.3482 18.3129 10.5767C18.5402 10.7949 18.5402 11.1872 18.3127 11.4055L16.1757 13.544C15.9469 13.7729 15.947 14.1439 16.1759 14.3726C16.4048 14.6013 16.7757 14.6013 17.0046 14.3723L19.1415 12.234C19.4646 11.9109 19.646 11.4841 19.6555 11.0287C19.6557 11.0226 19.6564 11.0167 19.6564 11.0106V4.88457C19.6564 4.55516 19.9121 4.28054 20.2265 4.27246C20.3853 4.26812 20.5371 4.3273 20.6512 4.43848C20.7654 4.54977 20.8283 4.69883 20.8283 4.85821V11.4557Z" fill="#25324B" stroke="#25324B" stroke-width="0.5"/>
<path d="M7.91689 7.16526C7.94197 7.19245 8.02822 7.27745 9.66995 8.87832C10.5262 9.71329 11.496 10.659 11.5741 10.7377C11.6845 10.8525 11.8369 10.9176 11.9965 10.9176C12.1583 10.9176 12.3129 10.8507 12.4235 10.7329C12.507 10.647 13.4037 9.77419 14.1951 9.00371C15.5809 7.65472 16.0213 7.22514 16.0764 7.16534C16.089 7.15163 16.1009 7.13741 16.1121 7.12276C18.0061 4.71856 16.2811 2.01928 13.8364 2.00768C13.1729 2.01791 12.5435 2.24573 11.9906 2.67175C10.5667 1.59424 9.0001 1.94389 8.07298 2.80116C6.82231 3.94371 6.76028 5.85193 7.89974 7.14581C7.90533 7.15241 7.91103 7.15889 7.91689 7.16526ZM8.86866 3.66156C9.4653 3.10972 10.5349 2.83284 11.5852 3.86855C11.6965 3.97836 11.8478 4.03895 12.0036 4.03723C12.1599 4.03535 12.3091 3.97105 12.4178 3.85863C13.0682 3.18597 14.1926 2.8364 15.1244 3.65808C15.7332 4.19508 16.1166 5.22876 15.2044 6.38135C15.0573 6.52912 14.1294 7.43229 13.3777 8.16406C12.7143 8.80984 12.2757 9.237 11.9959 9.51032C11.5968 9.11969 9.08248 6.6701 8.78108 6.37295C8.18494 5.65126 7.95994 4.50192 8.86866 3.66156Z" fill="#25324B" stroke="#25324B" stroke-width="0.5"/>
</svg>
