<svg width="24" height="24" viewBox="0 0 24 24" fill="none" xmlns="http://www.w3.org/2000/svg">
<g clip-path="url(#clip0_59_4956)">
<path d="M6.23818 12.16L12.0002 12" stroke="#25324B" stroke-width="2" stroke-linecap="round" stroke-linejoin="round"/>
<path d="M21.7947 12.1604L4.47054 20.2921C4.37182 20.3288 4.26464 20.3363 4.16175 20.3139C4.05885 20.2914 3.96457 20.2399 3.8901 20.1654C3.81563 20.091 3.7641 19.9967 3.74165 19.8938C3.7192 19.7909 3.72676 19.6837 3.76343 19.585L6.23831 12.1604L3.76343 4.73576C3.72676 4.63703 3.7192 4.52986 3.74165 4.42696C3.7641 4.32407 3.81563 4.22978 3.8901 4.15531C3.96457 4.08084 4.05885 4.02932 4.16174 4.00687C4.26464 3.98441 4.37182 3.99197 4.47054 4.02865L21.7947 12.1604Z" stroke="#25324B" stroke-width="2" stroke-linecap="round" stroke-linejoin="round"/>
</g>
<defs>
<clipPath id="clip0_59_4956">
<rect width="24" height="24" fill="white"/>
</clipPath>
</defs>
</svg>
