<svg width="24" height="24" viewBox="0 0 24 24" fill="none" xmlns="http://www.w3.org/2000/svg">
<path d="M12.0001 14.4001C12.6366 14.4001 13.2471 14.1472 13.6972 13.6972C14.1472 13.2471 14.4001 12.6366 14.4001 12.0001C14.4001 11.3636 14.1472 10.7531 13.6972 10.303C13.2471 9.85295 12.6366 9.6001 12.0001 9.6001C11.3636 9.6001 10.7531 9.85295 10.303 10.303C9.85295 10.7531 9.6001 11.3636 9.6001 12.0001C9.6001 12.6366 9.85295 13.2471 10.303 13.6972C10.7531 14.1472 11.3636 14.4001 12.0001 14.4001Z" fill="#25324B"/>
<path fill-rule="evenodd" clip-rule="evenodd" d="M0.549805 12.0001C2.0786 7.1317 6.6266 3.6001 12.0002 3.6001C17.3738 3.6001 21.9218 7.1317 23.4506 12.0001C21.9218 16.8685 17.3738 20.4001 12.0002 20.4001C6.6266 20.4001 2.0786 16.8685 0.549805 12.0001ZM16.8002 12.0001C16.8002 13.2731 16.2945 14.494 15.3943 15.3942C14.4941 16.2944 13.2732 16.8001 12.0002 16.8001C10.7272 16.8001 9.50627 16.2944 8.60609 15.3942C7.70592 14.494 7.2002 13.2731 7.2002 12.0001C7.2002 10.7271 7.70592 9.50616 8.60609 8.60599C9.50627 7.70581 10.7272 7.2001 12.0002 7.2001C13.2732 7.2001 14.4941 7.70581 15.3943 8.60599C16.2945 9.50616 16.8002 10.7271 16.8002 12.0001Z" fill="#25324B"/>
</svg>
