<svg width="24" height="24" viewBox="0 0 24 24" fill="none" xmlns="http://www.w3.org/2000/svg">
<path fill-rule="evenodd" clip-rule="evenodd" d="M10.4829 20.1377C11.0009 20.7147 11.6659 21.0317 12.3559 21.0317H12.3569C13.0499 21.0317 13.7179 20.7147 14.2369 20.1367C14.5149 19.8297 14.9889 19.8047 15.2959 20.0817C15.6039 20.3587 15.6289 20.8337 15.3519 21.1407C14.5439 22.0377 13.4809 22.5317 12.3569 22.5317H12.3549C11.2339 22.5307 10.1729 22.0367 9.36792 21.1397C9.09092 20.8327 9.11592 20.3577 9.42392 20.0817C9.73192 19.8037 10.2059 19.8287 10.4829 20.1377ZM12.4057 1.03174C16.8507 1.03174 19.8367 4.49374 19.8367 7.72674C19.8367 9.38974 20.2597 10.0947 20.7087 10.8427C21.1527 11.5807 21.6557 12.4187 21.6557 14.0027C21.3067 18.0497 17.0817 18.3797 12.4057 18.3797C7.72972 18.3797 3.50372 18.0497 3.1587 14.0667C3.15572 12.4187 3.65872 11.5807 4.10272 10.8427L4.25946 10.5789C4.64539 9.9156 4.97472 9.19409 4.97472 7.72674C4.97472 4.49374 7.96072 1.03174 12.4057 1.03174ZM12.4057 2.53174C8.91072 2.53174 6.47472 5.26974 6.47472 7.72674C6.47472 9.80574 5.89772 10.7667 5.38772 11.6147C4.97872 12.2957 4.65572 12.8337 4.65572 14.0027C4.82272 15.8887 6.06772 16.8797 12.4057 16.8797C18.7087 16.8797 19.9927 15.8447 20.1587 13.9377C20.1557 12.8337 19.8327 12.2957 19.4237 11.6147C18.9137 10.7667 18.3367 9.80574 18.3367 7.72674C18.3367 5.26974 15.9007 2.53174 12.4057 2.53174Z" fill="#25324B"/>
<circle cx="18" cy="6" r="3.5" fill="#FF6550" stroke="white"/>
</svg>
