<svg width="28" height="28" viewBox="0 0 28 28" fill="none" xmlns="http://www.w3.org/2000/svg">
<path d="M25.1285 11.7631H24.2132V11.7159H13.9864V16.2611H20.4083C19.4714 18.907 16.9539 20.8063 13.9864 20.8063C10.2213 20.8063 7.16863 17.7537 7.16863 13.9885C7.16863 10.2234 10.2213 7.1707 13.9864 7.1707C15.7244 7.1707 17.3056 7.82635 18.5095 8.89731L21.7235 5.68328C19.6941 3.7919 16.9795 2.62549 13.9864 2.62549C7.71121 2.62549 2.62341 7.71328 2.62341 13.9885C2.62341 20.2638 7.71121 25.3515 13.9864 25.3515C20.2617 25.3515 25.3495 20.2638 25.3495 13.9885C25.3495 13.2266 25.2711 12.4829 25.1285 11.7631Z" fill="#FFC107"/>
<path d="M3.93347 8.69959L7.66679 11.4375C8.67697 8.93651 11.1234 7.1707 13.9863 7.1707C15.7243 7.1707 17.3055 7.82635 18.5094 8.89731L21.7234 5.68328C19.694 3.7919 16.9794 2.62549 13.9863 2.62549C9.6218 2.62549 5.83678 5.08956 3.93347 8.69959Z" fill="#FF3D00"/>
<path d="M13.9865 25.3512C16.9216 25.3512 19.5885 24.228 21.6049 22.4014L18.088 19.4254C16.9089 20.3222 15.468 20.8072 13.9865 20.806C11.031 20.806 8.52149 18.9215 7.57609 16.2915L3.87061 19.1465C5.75119 22.8264 9.5703 25.3512 13.9865 25.3512Z" fill="#4CAF50"/>
<path d="M25.1285 11.763H24.2132V11.7158H13.9865V16.261H20.4083C19.9601 17.5203 19.1529 18.6207 18.0862 19.4262L18.0879 19.4251L21.6048 22.401C21.3559 22.6272 25.3495 19.6699 25.3495 13.9884C25.3495 13.2265 25.2711 12.4828 25.1285 11.763Z" fill="#1976D2"/>
</svg>
