<svg width="1155" height="1351" viewBox="0 0 1155 1351" fill="none" xmlns="http://www.w3.org/2000/svg">
<path d="M616.124 357.249H540.966C535.363 357.249 530.236 354.258 527.435 349.415L493.298 290.063C487.316 279.665 494.817 266.703 506.782 266.655L666.166 266.323" fill="#8497A3"/>
<path d="M874.737 16.0965V162.339C874.737 170.933 867.758 177.912 859.164 177.96L156.203 179.432C69.8878 179.622 0 249.656 0 335.93V892.599C0 897.727 2.51634 902.523 6.74189 905.419L246.364 1071.37C256.714 1078.54 270.863 1071.13 270.863 1058.55V917.29C270.863 908.695 277.842 901.668 286.483 901.668H384.288C388.418 901.668 392.407 903.33 395.303 906.226L566.366 1077.3C572.444 1083.38 582.319 1083.38 588.444 1077.3L756.754 908.98C759.697 906.037 763.638 904.422 767.769 904.422H996.423C1082.88 904.422 1152.91 834.34 1152.91 747.924V211.102C1152.91 206.306 1150.73 201.795 1146.98 198.852L900.043 3.84633C889.835 -4.22548 874.784 3.03914 874.784 16.0965H874.737ZM653.394 289.541L620.586 349.177C617.833 354.163 612.61 357.249 606.913 357.249H540.966C535.363 357.249 530.236 354.258 527.434 349.414L493.298 290.063C487.315 279.665 494.817 266.702 506.781 266.655L639.673 266.37C651.542 266.37 659.091 279.095 653.394 289.493V289.541ZM181.224 834.008V879.4C181.224 892.125 166.791 899.484 156.488 892.03L88.879 843.171C84.7959 840.228 82.422 835.527 82.422 830.542V343.384C82.422 301.458 116.369 267.462 158.245 267.367L357.605 266.94C362.97 266.94 368.003 269.694 370.852 274.252L454.033 406.487C456.312 410.095 456.977 414.464 455.98 418.595L358.697 806.611C356.94 813.543 350.721 818.434 343.552 818.434H196.844C188.251 818.434 181.224 825.414 181.224 834.055V834.008ZM445.82 836.334L535.221 461.945C536.883 454.918 543.197 449.98 550.414 449.98H595.233C602.497 449.98 608.812 455.013 610.426 462.04L697.074 836.382C698.356 841.842 696.551 847.587 692.421 851.386L581.987 952.711C576.005 958.171 566.841 958.171 560.906 952.711L450.52 851.481C446.342 847.635 444.585 841.842 445.867 836.382L445.82 836.334ZM1055.91 742.416C1055.91 784.39 1021.87 818.434 979.901 818.434H800.244C793.027 818.434 786.76 813.496 785.051 806.469L693.133 420.684C692.231 416.79 692.801 412.707 694.795 409.241L773.086 273.919C775.887 269.124 781.015 266.132 786.57 266.132L946.951 265.8C955.545 265.8 962.524 258.82 962.524 250.179V207.541C962.524 195.006 976.577 187.551 986.975 194.673L1049.12 237.311C1053.35 240.208 1055.91 245.051 1055.91 250.179V742.416Z" fill="#293A48"/>
<path d="M595.185 449.98H550.366C543.149 449.98 536.882 454.918 535.173 461.945L445.772 836.335C444.442 841.842 446.247 847.635 450.425 851.434L560.811 952.663C566.794 958.124 575.957 958.124 581.892 952.663L692.326 851.339C696.456 847.54 698.26 841.795 696.979 836.335L610.331 461.993C608.717 454.918 602.402 449.933 595.138 449.933L595.185 449.98Z" fill="#8497A3"/>
<path d="M511.957 837.853C511.957 835.289 512.669 832.82 513.998 830.684C516.562 826.363 521.5 824.036 526.532 823.941C557.108 823.181 587.779 823.941 618.403 823.656C635.495 826.6 634.83 850.483 617.263 852.145L601.31 852.24C592.764 852.287 585.832 859.267 585.832 867.814V882.913C584.93 900.956 560.147 902.38 557.346 884.527L557.251 867.671C557.203 859.125 550.224 852.193 541.678 852.193H526.152C518.509 851.86 512.146 845.64 512.099 837.948L511.957 837.853Z" fill="#293A48"/>
<path d="M571.447 806.753C579.261 806.753 585.595 800.418 585.595 792.604C585.595 784.789 579.261 778.455 571.447 778.455C563.633 778.455 557.298 784.789 557.298 792.604C557.298 800.418 563.633 806.753 571.447 806.753Z" fill="#293A48"/>
<path d="M158.102 1182.38V1348.89H105.876V1283.99H56.2615V1348.89H4.08301V1182.38H56.3089V1242.35H105.924V1182.38H158.15H158.102Z" fill="#293A48"/>
<path d="M233.83 1182.38V1348.89H181.604V1182.38H233.83Z" fill="#293A48"/>
<path d="M341.082 1348.89L309.794 1289.16H309.557V1348.89H257.331V1182.38H334.958C348.442 1182.38 359.979 1184.75 369.522 1189.55C379.065 1194.34 386.234 1200.85 391.029 1209.06C395.825 1217.28 398.199 1226.58 398.199 1236.93C398.199 1248.09 395.113 1257.97 388.893 1266.56C382.721 1275.2 373.795 1281.38 362.21 1285.13L398.436 1348.85H341.035L341.082 1348.89ZM309.557 1254.36H330.257C335.29 1254.36 339.041 1253.22 341.557 1250.94C344.074 1248.66 345.308 1245.1 345.308 1240.26C345.308 1235.89 344.026 1232.42 341.415 1229.91C338.851 1227.39 335.1 1226.15 330.257 1226.15H309.557V1254.36Z" fill="#293A48"/>
<path d="M467.137 1224.02V1244.48H518.888V1283.75H467.137V1307.25H525.915V1348.89H414.911V1182.38H525.915V1224.02H467.137Z" fill="#293A48"/>
<path d="M714.546 1268.13C709.703 1276.67 702.534 1283.46 693.038 1288.45C683.543 1293.48 672.053 1296 658.569 1296H637.869V1348.94H585.643V1182.42H658.569C678.937 1182.42 694.605 1187.6 705.477 1197.95C716.35 1208.3 721.81 1222.17 721.81 1239.59C721.81 1250.09 719.388 1259.63 714.498 1268.18L714.546 1268.13ZM668.919 1239.54C668.919 1229.34 663.507 1224.26 652.682 1224.26H637.869V1254.83H652.682C663.507 1254.83 668.919 1249.75 668.919 1239.54Z" fill="#293A48"/>
<path d="M790.511 1309.39H840.837V1348.89H738.285V1182.38H790.511V1309.39Z" fill="#293A48"/>
<path d="M908.351 1182.38V1276.2C908.351 1283.89 910.013 1289.97 913.431 1294.43C916.802 1298.9 922.262 1301.13 929.764 1301.13C937.265 1301.13 942.868 1298.9 946.476 1294.43C950.084 1289.97 951.888 1283.89 951.888 1276.2V1182.38H1003.88V1276.2C1003.88 1292.06 1000.6 1305.54 994.002 1316.75C987.402 1327.95 978.381 1336.41 966.939 1342.06C955.497 1347.71 942.725 1350.51 928.624 1350.51C914.523 1350.51 901.989 1347.71 891.116 1342.06C880.197 1336.41 871.698 1328 865.621 1316.89C859.496 1305.78 856.458 1292.2 856.458 1276.2V1182.38H908.446H908.351Z" fill="#293A48"/>
<path d="M1042.29 1336.55C1029.37 1327.24 1022.35 1313.52 1021.25 1295.52H1076.76C1077.52 1305.07 1081.79 1309.86 1089.43 1309.86C1092.23 1309.86 1094.66 1309.2 1096.6 1307.87C1098.55 1306.54 1099.55 1304.45 1099.55 1301.65C1099.55 1297.71 1097.41 1294.58 1093.18 1292.11C1088.96 1289.68 1082.36 1286.88 1073.43 1283.75C1062.75 1280 1053.97 1276.29 1046.99 1272.69C1040.01 1269.08 1034.03 1263.81 1028.99 1256.92C1023.96 1250.04 1021.54 1241.16 1021.68 1230.33C1021.68 1219.51 1024.48 1210.3 1030.04 1202.7C1035.59 1195.1 1043.19 1189.31 1052.83 1185.42C1062.46 1181.48 1073.34 1179.53 1085.4 1179.53C1105.76 1179.53 1121.96 1184.23 1133.97 1193.63C1145.98 1203.03 1152.29 1216.28 1152.91 1233.37H1096.7C1096.55 1228.67 1095.37 1225.3 1093.18 1223.26C1091 1221.22 1088.34 1220.22 1085.21 1220.22C1083.02 1220.22 1081.22 1220.98 1079.79 1222.45C1078.37 1223.92 1077.66 1226.01 1077.66 1228.67C1077.66 1232.42 1079.75 1235.51 1083.88 1237.98C1088.01 1240.4 1094.66 1243.34 1103.77 1246.81C1114.26 1250.75 1122.95 1254.5 1129.74 1258.11C1136.58 1261.72 1142.47 1266.75 1147.5 1273.16C1152.53 1279.57 1155 1287.64 1155 1297.38C1155 1307.11 1152.48 1316.7 1147.5 1324.77C1142.47 1332.85 1135.2 1339.16 1125.61 1343.72C1116.07 1348.28 1104.67 1350.56 1091.52 1350.56C1071.63 1350.56 1055.2 1345.9 1042.24 1336.55H1042.29Z" fill="#293A48"/>
</svg>
