<svg width="202" height="44" viewBox="0 0 202 44" fill="none" xmlns="http://www.w3.org/2000/svg">
<path d="M46.453 14.9879H43.4815C43.26 14.9879 43.0572 14.8696 42.9465 14.6781L41.5968 12.3313C41.3603 11.9201 41.6568 11.4076 42.1299 11.4057L48.4316 11.3926" fill="#8497A3"/>
<path d="M56.6777 1.49815V7.28074C56.6777 7.62056 56.4018 7.89655 56.062 7.89843L28.2687 7.95663C24.856 7.96414 22.0928 10.7334 22.0928 14.1448V36.1562C22.0928 36.3589 22.1923 36.5485 22.3593 36.6631L31.8334 43.2248C32.2426 43.5083 32.802 43.2154 32.802 42.7179V37.1324C32.802 36.7926 33.078 36.5148 33.4196 36.5148H37.2866C37.4499 36.5148 37.6076 36.5805 37.7221 36.695L44.4855 43.4595C44.7258 43.6998 45.1163 43.6998 45.3584 43.4595L52.013 36.8039C52.1294 36.6875 52.2852 36.6236 52.4485 36.6236H61.4889C64.9073 36.6236 67.6761 33.8525 67.6761 30.4355V9.2089C67.6761 9.01928 67.5897 8.84092 67.4414 8.72451L57.6783 1.01376C57.2747 0.694595 56.6796 0.981848 56.6796 1.49815H56.6777ZM47.9264 12.3105L46.6293 14.6686C46.5204 14.8657 46.3139 14.9877 46.0886 14.9877H43.4812C43.2597 14.9877 43.057 14.8695 42.9463 14.678L41.5966 12.3311C41.36 11.92 41.6566 11.4074 42.1297 11.4055L47.3839 11.3943C47.8532 11.3943 48.1516 11.8974 47.9264 12.3086V12.3105ZM29.2579 33.8394V35.6342C29.2579 36.1374 28.6873 36.4284 28.2799 36.1336L25.6068 34.2017C25.4454 34.0853 25.3515 33.8994 25.3515 33.7023V14.4395C25.3515 12.7817 26.6937 11.4375 28.3494 11.4337L36.2316 11.4168C36.4437 11.4168 36.6427 11.5257 36.7553 11.7059L40.0441 16.9347C40.1343 17.0774 40.1605 17.2501 40.1211 17.4134L36.2748 32.7561C36.2053 33.0302 35.9594 33.2236 35.676 33.2236H29.8755C29.5358 33.2236 29.2579 33.4995 29.2579 33.8412V33.8394ZM39.7194 33.9314L43.2541 19.1275C43.3198 18.8497 43.5695 18.6544 43.8548 18.6544H45.6269C45.9141 18.6544 46.1637 18.8534 46.2275 19.1313L49.6534 33.9332C49.7041 34.1491 49.6327 34.3763 49.4694 34.5265L45.1031 38.533C44.8666 38.7489 44.5043 38.7489 44.2697 38.533L39.9052 34.5303C39.74 34.3782 39.6706 34.1491 39.7213 33.9332L39.7194 33.9314ZM63.841 30.2177C63.841 31.8774 62.4951 33.2236 60.8357 33.2236H53.7325C53.4471 33.2236 53.1993 33.0283 53.1318 32.7504L49.4976 17.496C49.4619 17.3421 49.4844 17.1806 49.5633 17.0436L52.6587 11.6928C52.7695 11.5032 52.9722 11.3849 53.1918 11.3849L59.5329 11.3717C59.8727 11.3717 60.1486 11.0958 60.1486 10.7541V9.06809C60.1486 8.57244 60.7043 8.27768 61.1154 8.5593L63.5726 10.2453C63.7397 10.3598 63.841 10.5513 63.841 10.7541V30.2177Z" fill="#293A48"/>
<path d="M45.6252 18.6552H43.8531C43.5678 18.6552 43.32 18.8505 43.2524 19.1283L39.7177 33.9321C39.6651 34.1499 39.7365 34.379 39.9017 34.5292L44.2661 38.5319C44.5026 38.7478 44.8649 38.7478 45.0996 38.5319L49.4658 34.5254C49.6292 34.3752 49.7005 34.148 49.6498 33.9321L46.224 19.1302C46.1602 18.8505 45.9105 18.6533 45.6233 18.6533L45.6252 18.6552Z" fill="#8497A3"/>
<path d="M42.3345 33.9907C42.3345 33.8893 42.3626 33.7917 42.4152 33.7072C42.5166 33.5363 42.7118 33.4443 42.9108 33.4406C44.1197 33.4105 45.3323 33.4406 46.5431 33.4293C47.2189 33.5457 47.1926 34.4901 46.498 34.5558L45.8673 34.5595C45.5294 34.5614 45.2553 34.8374 45.2553 35.1754V35.7724C45.2197 36.4858 44.2398 36.5421 44.129 35.8362L44.1253 35.1697C44.1234 34.8318 43.8475 34.5577 43.5096 34.5577H42.8957C42.5935 34.5445 42.342 34.2986 42.3401 33.9944L42.3345 33.9907Z" fill="#293A48"/>
<path d="M44.6868 32.7606C44.9958 32.7606 45.2462 32.5101 45.2462 32.2011C45.2462 31.8921 44.9958 31.6416 44.6868 31.6416C44.3779 31.6416 44.1274 31.8921 44.1274 32.2011C44.1274 32.5101 44.3779 32.7606 44.6868 32.7606Z" fill="#293A48"/>
<path d="M96.0039 15.3027V29.3187H91.6083V23.8554H87.4326V29.3187H83.041V15.3027H87.4366V20.3504H91.6123V15.3027H96.0079H96.0039Z" fill="#293A48"/>
<path d="M102.377 15.3027V29.3187H97.9819V15.3027H102.377Z" fill="#293A48"/>
<path d="M111.404 29.3187L108.771 24.291H108.751V29.3187H104.355V15.3027H110.889C112.024 15.3027 112.995 15.5026 113.798 15.9062C114.601 16.3099 115.204 16.8574 115.608 17.5488C116.012 18.2402 116.211 19.0235 116.211 19.8948C116.211 20.834 115.952 21.6653 115.428 22.3887C114.909 23.116 114.158 23.6356 113.183 23.9513L116.231 29.3147H111.4L111.404 29.3187ZM108.751 21.3615H110.493C110.917 21.3615 111.232 21.2656 111.444 21.0738C111.656 20.8819 111.76 20.5822 111.76 20.1746C111.76 19.8069 111.652 19.5151 111.432 19.3033C111.217 19.0915 110.901 18.9876 110.493 18.9876H108.751V21.3615Z" fill="#293A48"/>
<path d="M122.014 18.8077V20.5303H126.369V23.8354H122.014V25.8137H126.961V29.3187H117.618V15.3027H126.961V18.8077H122.014Z" fill="#293A48"/>
<path d="M142.836 22.5205C142.429 23.2398 141.825 23.8114 141.026 24.231C140.227 24.6546 139.26 24.8664 138.125 24.8664H136.383V29.3226H131.987V15.3066H138.125C139.839 15.3066 141.158 15.7423 142.073 16.6135C142.988 17.4848 143.448 18.6518 143.448 20.1185C143.448 21.0018 143.244 21.8051 142.832 22.5244L142.836 22.5205ZM138.996 20.1145C138.996 19.2553 138.541 18.8276 137.63 18.8276H136.383V21.4014H137.63C138.541 21.4014 138.996 20.9738 138.996 20.1145Z" fill="#293A48"/>
<path d="M149.23 25.9936H153.465V29.3187H144.834V15.3027H149.23V25.9936Z" fill="#293A48"/>
<path d="M159.148 15.3027V23.2C159.148 23.8474 159.288 24.359 159.575 24.7346C159.859 25.1103 160.319 25.2982 160.95 25.2982C161.581 25.2982 162.053 25.1103 162.357 24.7346C162.66 24.359 162.812 23.8474 162.812 23.2V15.3027H167.188V23.2C167.188 24.5348 166.912 25.6698 166.357 26.613C165.801 27.5562 165.042 28.2676 164.079 28.7432C163.116 29.2188 162.041 29.4546 160.854 29.4546C159.667 29.4546 158.612 29.2188 157.697 28.7432C156.778 28.2676 156.063 27.5602 155.551 26.625C155.036 25.6898 154.78 24.5468 154.78 23.2V15.3027H159.156H159.148Z" fill="#293A48"/>
<path d="M170.42 28.2792C169.333 27.4958 168.742 26.3408 168.65 24.8261H173.321C173.385 25.6294 173.745 26.0331 174.388 26.0331C174.624 26.0331 174.828 25.9771 174.991 25.8652C175.155 25.7533 175.239 25.5775 175.239 25.3417C175.239 25.01 175.059 24.7462 174.704 24.5384C174.348 24.3345 173.793 24.0987 173.041 23.835C172.142 23.5192 171.403 23.2075 170.816 22.9038C170.228 22.6 169.725 22.1564 169.301 21.5769C168.878 20.9974 168.674 20.25 168.686 19.3388C168.686 18.4276 168.922 17.6523 169.389 17.0128C169.857 16.3734 170.496 15.8858 171.307 15.5581C172.118 15.2264 173.033 15.0625 174.048 15.0625C175.763 15.0625 177.125 15.4582 178.136 16.2495C179.147 17.0408 179.679 18.1558 179.731 19.5946H174.999C174.987 19.199 174.888 18.9152 174.704 18.7433C174.52 18.5715 174.296 18.4876 174.032 18.4876C173.849 18.4876 173.697 18.5515 173.577 18.6754C173.457 18.7993 173.397 18.9751 173.397 19.199C173.397 19.5147 173.573 19.7745 173.921 19.9823C174.268 20.1861 174.828 20.4339 175.595 20.7256C176.478 21.0574 177.209 21.3731 177.781 21.6768C178.356 21.9806 178.852 22.4042 179.275 22.9437C179.699 23.4833 179.906 24.1627 179.906 24.982C179.906 25.8013 179.695 26.6086 179.275 27.288C178.852 27.9674 178.24 28.499 177.433 28.8826C176.63 29.2663 175.671 29.4581 174.564 29.4581C172.89 29.4581 171.507 29.0665 170.416 28.2792H170.42Z" fill="#293A48"/>
</svg>
